<?xml version="1.0" encoding="UTF-8" standalone="no"?>
<!DOCTYPE svg PUBLIC "-//W3C//DTD SVG 1.1//EN"
 "http://www.w3.org/Graphics/SVG/1.1/DTD/svg11.dtd">
<!-- Generated by graphviz version 2.26.3 (20100126.1600)
 -->
<!-- Title: models_diagram Pages: 1 -->
<svg width="474pt" height="176pt"
 viewBox="0.00 0.00 474.00 176.00" xmlns="http://www.w3.org/2000/svg" xmlns:xlink="http://www.w3.org/1999/xlink">
<g id="graph1" class="graph" transform="scale(1 1) rotate(0) translate(4 172)">
<title>models_diagram</title>
<polygon fill="none" stroke="none" points="-4,5 -4,-172 471,-172 471,5 -4,5"/>
<!-- _diagram_info -->
<g id="node1" class="node"><title>_diagram_info</title>
<text text-anchor="start" x="8" y="-151.8" font-family="Times Roman,serif" font-size="13.00">Models diagram</text>
<text text-anchor="start" x="8" y="-134.8" font-family="Times Roman,serif" font-size="13.00">Date: Oct 28 2016 &#45; 19:53</text>
<text text-anchor="start" x="8" y="-117.8" font-family="Times Roman,serif" font-size="13.00">Migration version: 20161028223451</text>
<text text-anchor="start" x="8" y="-100.8" font-family="Times Roman,serif" font-size="13.00">Generated by RailRoady 1.5.2</text>
<text text-anchor="start" x="8" y="-83.8" font-family="Times Roman,serif" font-size="13.00">http://railroady.prestonlee.com</text>
</g>
<!-- Category -->
<g id="node2" class="node"><title>Category</title>
<ellipse fill="none" stroke="black" cx="324" cy="-121" rx="56.0679" ry="18.3848"/>
<text text-anchor="middle" x="324" y="-117.4" font-family="Times Roman,serif" font-size="14.00">Category</text>
</g>
<!-- Item -->
<g id="node3" class="node"><title>Item</title>
<ellipse fill="none" stroke="black" cx="378" cy="-19" rx="33.9411" ry="18.3848"/>
<text text-anchor="middle" x="378" y="-15.4" font-family="Times Roman,serif" font-size="14.00">Item</text>
</g>
<!-- Category&#45;&gt;Item -->
<g id="edge2" class="edge"><title>Category&#45;&gt;Item</title>
<path fill="none" stroke="#da26fb" d="M337.568,-95.3707C345.533,-80.3258 355.591,-61.3287 363.682,-46.0453"/>
<ellipse fill="none" stroke="#da26fb" cx="335.526" cy="-99.2293" rx="4.00002" ry="4.00002"/>
<polygon fill="#da26fb" stroke="#da26fb" points="363.751,-45.9156 372.407,-39.1832 366.09,-41.4966 368.429,-37.0777 368.429,-37.0777 368.429,-37.0777 366.09,-41.4966 364.452,-34.9722 363.751,-45.9156 363.751,-45.9156"/>
</g>
<!-- User -->
<g id="node4" class="node"><title>User</title>
<ellipse fill="none" stroke="black" cx="432" cy="-121" rx="33.9411" ry="18.3848"/>
<text text-anchor="middle" x="432" y="-117.4" font-family="Times Roman,serif" font-size="14.00">User</text>
</g>
<!-- User&#45;&gt;Item -->
<g id="edge4" class="edge"><title>User&#45;&gt;Item</title>
<path fill="none" stroke="#63d982" d="M418.432,-95.3707C410.467,-80.3258 400.409,-61.3287 392.318,-46.0453"/>
<ellipse fill="none" stroke="#63d982" cx="420.474" cy="-99.2293" rx="4.00002" ry="4.00002"/>
<polygon fill="#63d982" stroke="#63d982" points="392.249,-45.9156 391.548,-34.9722 389.91,-41.4966 387.571,-37.0777 387.571,-37.0777 387.571,-37.0777 389.91,-41.4966 383.593,-39.1832 392.249,-45.9156 392.249,-45.9156"/>
</g>
</g>
</svg>
