<?xml version="1.0" encoding="UTF-8" standalone="no"?>
<!DOCTYPE svg PUBLIC "-//W3C//DTD SVG 1.1//EN"
 "http://www.w3.org/Graphics/SVG/1.1/DTD/svg11.dtd">
<!-- Generated by graphviz version 2.26.3 (20100126.1600)
 -->
<!-- Title: models_diagram Pages: 1 -->
<svg width="910pt" height="350pt"
 viewBox="0.00 0.00 910.00 350.00" xmlns="http://www.w3.org/2000/svg" xmlns:xlink="http://www.w3.org/1999/xlink">
<g id="graph1" class="graph" transform="scale(1 1) rotate(0) translate(4 346)">
<title>models_diagram</title>
<polygon fill="none" stroke="none" points="-4,5 -4,-346 907,-346 907,5 -4,5"/>
<!-- _diagram_info -->
<g id="node1" class="node"><title>_diagram_info</title>
<text text-anchor="start" x="8" y="-309.8" font-family="Times Roman,serif" font-size="13.00">Models diagram</text>
<text text-anchor="start" x="8" y="-292.8" font-family="Times Roman,serif" font-size="13.00">Date: Oct 28 2016 &#45; 19:53</text>
<text text-anchor="start" x="8" y="-275.8" font-family="Times Roman,serif" font-size="13.00">Migration version: 20161028223451</text>
<text text-anchor="start" x="8" y="-258.8" font-family="Times Roman,serif" font-size="13.00">Generated by RailRoady 1.5.2</text>
<text text-anchor="start" x="8" y="-241.8" font-family="Times Roman,serif" font-size="13.00">http://railroady.prestonlee.com</text>
</g>
<!-- Category -->
<g id="node2" class="node"><title>Category</title>
<polyline fill="none" stroke="black" points="279.5,-226 564.5,-226 "/>
<path fill="none" stroke="black" d="M564.5,-226C570.5,-226 576.5,-232 576.5,-238"/>
<polyline fill="none" stroke="black" points="576.5,-238 576.5,-320 "/>
<path fill="none" stroke="black" d="M576.5,-320C576.5,-326 570.5,-332 564.5,-332"/>
<polyline fill="none" stroke="black" points="564.5,-332 279.5,-332 "/>
<path fill="none" stroke="black" d="M279.5,-332C273.5,-332 267.5,-326 267.5,-320"/>
<polyline fill="none" stroke="black" points="267.5,-320 267.5,-238 "/>
<path fill="none" stroke="black" d="M267.5,-238C267.5,-232 273.5,-226 279.5,-226"/>
<text text-anchor="middle" x="422" y="-315.4" font-family="Times Roman,serif" font-size="14.00">Category</text>
<polyline fill="none" stroke="black" points="267.5,-306 576.5,-306 "/>
<text text-anchor="start" x="275.5" y="-289.4" font-family="Times Roman,serif" font-size="14.00">id :integer</text>
<text text-anchor="start" x="275.5" y="-271.4" font-family="Times Roman,serif" font-size="14.00">name :character varying(40)</text>
<text text-anchor="start" x="275.5" y="-253.4" font-family="Times Roman,serif" font-size="14.00">created_at :timestamp without time zone</text>
<text text-anchor="start" x="275.5" y="-235.4" font-family="Times Roman,serif" font-size="14.00">updated_at :timestamp without time zone</text>
</g>
<!-- Item -->
<g id="node3" class="node"><title>Item</title>
<polyline fill="none" stroke="black" points="442.5,-1 727.5,-1 "/>
<path fill="none" stroke="black" d="M727.5,-1C733.5,-1 739.5,-7 739.5,-13"/>
<polyline fill="none" stroke="black" points="739.5,-13 739.5,-167 "/>
<path fill="none" stroke="black" d="M739.5,-167C739.5,-173 733.5,-179 727.5,-179"/>
<polyline fill="none" stroke="black" points="727.5,-179 442.5,-179 "/>
<path fill="none" stroke="black" d="M442.5,-179C436.5,-179 430.5,-173 430.5,-167"/>
<polyline fill="none" stroke="black" points="430.5,-167 430.5,-13 "/>
<path fill="none" stroke="black" d="M430.5,-13C430.5,-7 436.5,-1 442.5,-1"/>
<text text-anchor="middle" x="585" y="-162.4" font-family="Times Roman,serif" font-size="14.00">Item</text>
<polyline fill="none" stroke="black" points="430.5,-153 739.5,-153 "/>
<text text-anchor="start" x="438.5" y="-136.4" font-family="Times Roman,serif" font-size="14.00">id :integer</text>
<text text-anchor="start" x="438.5" y="-118.4" font-family="Times Roman,serif" font-size="14.00">serial :integer</text>
<text text-anchor="start" x="438.5" y="-100.4" font-family="Times Roman,serif" font-size="14.00">size :integer</text>
<text text-anchor="start" x="438.5" y="-82.4" font-family="Times Roman,serif" font-size="14.00">description :text</text>
<text text-anchor="start" x="438.5" y="-64.4" font-family="Times Roman,serif" font-size="14.00">category_id :integer</text>
<text text-anchor="start" x="438.5" y="-46.4" font-family="Times Roman,serif" font-size="14.00">created_at :timestamp without time zone</text>
<text text-anchor="start" x="438.5" y="-28.4" font-family="Times Roman,serif" font-size="14.00">updated_at :timestamp without time zone</text>
<text text-anchor="start" x="438.5" y="-10.4" font-family="Times Roman,serif" font-size="14.00">user_id :integer</text>
</g>
<!-- Category&#45;&gt;Item -->
<g id="edge2" class="edge"><title>Category&#45;&gt;Item</title>
<path fill="none" stroke="#b222c2" d="M473.2,-219.633C482.198,-209.2 491.77,-198.101 501.382,-186.956"/>
<ellipse fill="none" stroke="#b222c2" cx="470.451" cy="-222.821" rx="4.00002" ry="4.00002"/>
<polygon fill="#b222c2" stroke="#b222c2" points="501.504,-186.814 511.443,-182.18 504.77,-183.027 508.035,-179.241 508.035,-179.241 508.035,-179.241 504.77,-183.027 504.628,-176.302 501.504,-186.814 501.504,-186.814"/>
</g>
<!-- User -->
<g id="node4" class="node"><title>User</title>
<polyline fill="none" stroke="black" points="605.5,-217 890.5,-217 "/>
<path fill="none" stroke="black" d="M890.5,-217C896.5,-217 902.5,-223 902.5,-229"/>
<polyline fill="none" stroke="black" points="902.5,-229 902.5,-329 "/>
<path fill="none" stroke="black" d="M902.5,-329C902.5,-335 896.5,-341 890.5,-341"/>
<polyline fill="none" stroke="black" points="890.5,-341 605.5,-341 "/>
<path fill="none" stroke="black" d="M605.5,-341C599.5,-341 593.5,-335 593.5,-329"/>
<polyline fill="none" stroke="black" points="593.5,-329 593.5,-229 "/>
<path fill="none" stroke="black" d="M593.5,-229C593.5,-223 599.5,-217 605.5,-217"/>
<text text-anchor="middle" x="748" y="-324.4" font-family="Times Roman,serif" font-size="14.00">User</text>
<polyline fill="none" stroke="black" points="593.5,-315 902.5,-315 "/>
<text text-anchor="start" x="601.5" y="-298.4" font-family="Times Roman,serif" font-size="14.00">id :integer</text>
<text text-anchor="start" x="601.5" y="-280.4" font-family="Times Roman,serif" font-size="14.00">name :character varying(40)</text>
<text text-anchor="start" x="601.5" y="-262.4" font-family="Times Roman,serif" font-size="14.00">email :character varying(40)</text>
<text text-anchor="start" x="601.5" y="-244.4" font-family="Times Roman,serif" font-size="14.00">created_at :timestamp without time zone</text>
<text text-anchor="start" x="601.5" y="-226.4" font-family="Times Roman,serif" font-size="14.00">updated_at :timestamp without time zone</text>
</g>
<!-- User&#45;&gt;Item -->
<g id="edge4" class="edge"><title>User&#45;&gt;Item</title>
<path fill="none" stroke="#dbd71f" d="M688.986,-210.573C682.399,-202.936 675.6,-195.051 668.779,-187.142"/>
<ellipse fill="none" stroke="#dbd71f" cx="691.79" cy="-213.823" rx="4.00002" ry="4.00002"/>
<polygon fill="#dbd71f" stroke="#dbd71f" points="668.489,-186.806 665.366,-176.295 665.224,-183.02 661.958,-179.234 661.958,-179.234 661.958,-179.234 665.224,-183.02 658.55,-182.172 668.489,-186.806 668.489,-186.806"/>
</g>
</g>
</svg>
